<svg xmlns="http://www.w3.org/2000/svg" width="562" height="13" fill="#fff" viewBox="0 0 562 13"><path stroke="#000" d="M-13.5 21.5L7 1"/><path stroke="#B0AFB3" d="M-6 21.5L14.5 1"/><path stroke="#B0AFB3" d="M1.5 21.5L22 1"/><path stroke="#B0AFB3" d="M9 21.5L29.5 1"/><path stroke="#B0AFB3" d="M16.5 21.5L37 1"/><path stroke="#B0AFB3" d="M24 21.5L44.5 1"/><path stroke="#B0AFB3" d="M31.5 21.5L52 1"/><path stroke="#B0AFB3" d="M39 21.5L59.5 1"/><path stroke="#B0AFB3" d="M46.5 21.5L67 1"/><path stroke="#B0AFB3" d="M54 21.5L74.5 1"/><path stroke="#B0AFB3" d="M61.5 21.5L82 1"/><path stroke="#B0AFB3" d="M69 21.5L89.5 1"/><path stroke="#B0AFB3" d="M76.5 21.5L97 1"/><path stroke="#B0AFB3" d="M84 21.5L104.5 1"/><path stroke="#B0AFB3" d="M91.5 21.5L112 1"/><path stroke="#B0AFB3" d="M99 21.5L119.5 1"/><path stroke="#B0AFB3" d="M106.5 21.5L127 1"/><path stroke="#B0AFB3" d="M114 21.5L134.5 1"/><path stroke="#B0AFB3" d="M121.5 21.5L142 1"/><path stroke="#B0AFB3" d="M129 21.5L149.5 1"/><path stroke="#B0AFB3" d="M136.5 21.5L157 1"/><path stroke="#B0AFB3" d="M144 21.5L164.5 1"/><path stroke="#B0AFB3" d="M151.5 21.5L172 1"/><path stroke="#B0AFB3" d="M159 21.5L179.5 1"/><path stroke="#B0AFB3" d="M166.5 21.5L187 1"/><path stroke="#B0AFB3" d="M174 21.5L194.5 1"/><path stroke="#B0AFB3" d="M181.5 21.5L202 1"/><path stroke="#B0AFB3" d="M189 21.5L209.5 1"/><path stroke="#B0AFB3" d="M196.5 21.5L217 1"/><path stroke="#B0AFB3" d="M204 21.5L224.5 1"/><path stroke="#B0AFB3" d="M211.5 21.5L232 1"/><path stroke="#B0AFB3" d="M219 21.5L239.5 1"/><path stroke="#B0AFB3" d="M226.5 21.5L247 1"/><path stroke="#B0AFB3" d="M234 21.5L254.5 1"/><path stroke="#B0AFB3" d="M241.5 21.5L262 1"/><path stroke="#B0AFB3" d="M249 21.5L269.5 1"/><path stroke="#B0AFB3" d="M256.5 21.5L277 1"/><path stroke="#B0AFB3" d="M264 21.5L284.5 1"/><path stroke="#B0AFB3" d="M271.5 21.5L292 1"/><path stroke="#B0AFB3" d="M279 21.5L299.5 1"/><path stroke="#B0AFB3" d="M286.5 21.5L307 1"/><path stroke="#B0AFB3" d="M294 21.5L314.5 1"/><path stroke="#B0AFB3" d="M301.5 21.5L322 1"/><path stroke="#B0AFB3" d="M309 21.5L329.5 1"/><path stroke="#B0AFB3" d="M316.5 21.5L337 1"/><path stroke="#B0AFB3" d="M324 21.5L344.5 1"/><path stroke="#B0AFB3" d="M331.5 21.5L352 1"/><path stroke="#B0AFB3" d="M339 21.5L359.5 1"/><path stroke="#B0AFB3" d="M346.5 21.5L367 1"/><path stroke="#B0AFB3" d="M354 21.5L374.5 1"/><path stroke="#B0AFB3" d="M361.5 21.5L382 1"/><path stroke="#B0AFB3" d="M369 21.5L389.5 1"/><path stroke="#B0AFB3" d="M376.5 21.5L397 1"/><path stroke="#B0AFB3" d="M384 21.5L404.5 1"/><path stroke="#B0AFB3" d="M391.5 21.5L412 1"/><path stroke="#B0AFB3" d="M399 21.5L419.5 1"/><path stroke="#B0AFB3" d="M406.5 21.5L427 1"/><path stroke="#B0AFB3" d="M414 21.5L434.5 1"/><path stroke="#B0AFB3" d="M421.5 21.5L442 1"/><path stroke="#B0AFB3" d="M429 21.5L449.5 1"/><path stroke="#B0AFB3" d="M436.5 21.5L457 1"/><path stroke="#B0AFB3" d="M444 21.5L464.5 1"/><path stroke="#B0AFB3" d="M451.5 21.5L472 1"/><path stroke="#B0AFB3" d="M459 21.5L479.5 1"/><path stroke="#B0AFB3" d="M466.5 21.5L487 1"/><path stroke="#B0AFB3" d="M474 21.5L494.5 1"/><path stroke="#B0AFB3" d="M481.5 21.5L502 1"/><path stroke="#B0AFB3" d="M489 21.5L509.5 1"/><path stroke="#B0AFB3" d="M496.5 21.5L517 1"/><path stroke="#B0AFB3" d="M504 21.5L524.5 1"/><path stroke="#B0AFB3" d="M511.5 21.5L532 1"/><path stroke="#B0AFB3" d="M519 21.5L539.5 1"/><path stroke="#B0AFB3" d="M526.5 21.5L547 1"/><path stroke="#B0AFB3" d="M534 21.5L554.5 1"/><path stroke="#B0AFB3" d="M541.5 21.5L562 1"/><path stroke="#B0AFB3" d="M549 21.5L569.5 1"/></svg>