<svg xmlns="http://www.w3.org/2000/svg" width="735" height="22" fill="none" version="1.1" viewBox="0 0 735 22"><path stroke="#B0AFB3" stroke-linecap="round" d="M1 21.5L21.5 1"/><path stroke="#B0AFB3" stroke-linecap="round" d="M8.5 21.5L29 1"/><path stroke="#B0AFB3" stroke-linecap="round" d="M16 21.5L36.5 1"/><path stroke="#B0AFB3" stroke-linecap="round" d="M23.5 21.5L44 1"/><path stroke="#B0AFB3" stroke-linecap="round" d="M31 21.5L51.5 1"/><path stroke="#B0AFB3" stroke-linecap="round" d="M38.5 21.5L59 1"/><path stroke="#B0AFB3" stroke-linecap="round" d="M46 21.5L66.5 1"/><path stroke="#B0AFB3" stroke-linecap="round" d="M53.5 21.5L74 1"/><path stroke="#B0AFB3" stroke-linecap="round" d="M61 21.5L81.5 1"/><path stroke="#B0AFB3" stroke-linecap="round" d="M68.5 21.5L89 1"/><path stroke="#B0AFB3" stroke-linecap="round" d="M76 21.5L96.5 1"/><path stroke="#B0AFB3" stroke-linecap="round" d="M83.5 21.5L104 1"/><path stroke="#B0AFB3" stroke-linecap="round" d="M91 21.5L111.5 1"/><path stroke="#B0AFB3" stroke-linecap="round" d="M98.5 21.5L119 1"/><path stroke="#B0AFB3" stroke-linecap="round" d="M106 21.5L126.5 1"/><path stroke="#B0AFB3" stroke-linecap="round" d="M113.5 21.5L134 1"/><path stroke="#B0AFB3" stroke-linecap="round" d="M121 21.5L141.5 1"/><path stroke="#B0AFB3" stroke-linecap="round" d="M128.5 21.5L149 1"/><path stroke="#B0AFB3" stroke-linecap="round" d="M136 21.5L156.5 1"/><path stroke="#B0AFB3" stroke-linecap="round" d="M143.5 21.5L164 1"/><path stroke="#B0AFB3" stroke-linecap="round" d="M151 21.5L171.5 1"/><path stroke="#B0AFB3" stroke-linecap="round" d="M158.5 21.5L179 1"/><path stroke="#B0AFB3" stroke-linecap="round" d="M166 21.5L186.5 1"/><path stroke="#B0AFB3" stroke-linecap="round" d="M173.5 21.5L194 1"/><path stroke="#B0AFB3" stroke-linecap="round" d="M181 21.5L201.5 1"/><path stroke="#B0AFB3" stroke-linecap="round" d="M188.5 21.5L209 1"/><path stroke="#B0AFB3" stroke-linecap="round" d="M196 21.5L216.5 1"/><path stroke="#B0AFB3" stroke-linecap="round" d="M203.5 21.5L224 1"/><path stroke="#B0AFB3" stroke-linecap="round" d="M211 21.5L231.5 1"/><path stroke="#B0AFB3" stroke-linecap="round" d="M218.5 21.5L239 1"/><path stroke="#B0AFB3" stroke-linecap="round" d="M226 21.5L246.5 1"/><path stroke="#B0AFB3" stroke-linecap="round" d="M233.5 21.5L254 1"/><path stroke="#B0AFB3" stroke-linecap="round" d="M241 21.5L261.5 1"/><path stroke="#B0AFB3" stroke-linecap="round" d="M248.5 21.5L269 1"/><path stroke="#B0AFB3" stroke-linecap="round" d="M256 21.5L276.5 1"/><path stroke="#B0AFB3" stroke-linecap="round" d="M263.5 21.5L284 1"/><path stroke="#B0AFB3" stroke-linecap="round" d="M271 21.5L291.5 1"/><path stroke="#B0AFB3" stroke-linecap="round" d="M278.5 21.5L299 1"/><path stroke="#B0AFB3" stroke-linecap="round" d="M286 21.5L306.5 1"/><path stroke="#B0AFB3" stroke-linecap="round" d="M293.5 21.5L314 1"/><path stroke="#B0AFB3" stroke-linecap="round" d="M301 21.5L321.5 1"/><path stroke="#B0AFB3" stroke-linecap="round" d="M308.5 21.5L329 1"/><path stroke="#B0AFB3" stroke-linecap="round" d="M316 21.5L336.5 1"/><path stroke="#B0AFB3" stroke-linecap="round" d="M323.5 21.5L344 1"/><path stroke="#B0AFB3" stroke-linecap="round" d="M331 21.5L351.5 1"/><path stroke="#B0AFB3" stroke-linecap="round" d="M338.5 21.5L359 1"/><path stroke="#B0AFB3" stroke-linecap="round" d="M346 21.5L366.5 1"/><path stroke="#B0AFB3" stroke-linecap="round" d="M353.5 21.5L374 1"/><path stroke="#B0AFB3" stroke-linecap="round" d="M361 21.5L381.5 1"/><path stroke="#B0AFB3" stroke-linecap="round" d="M368.5 21.5L389 1"/><path stroke="#B0AFB3" stroke-linecap="round" d="M376 21.5L396.5 1"/><path stroke="#B0AFB3" stroke-linecap="round" d="M383.5 21.5L404 1"/><path stroke="#B0AFB3" stroke-linecap="round" d="M391 21.5L411.5 1"/><path stroke="#B0AFB3" stroke-linecap="round" d="M398.5 21.5L419 1"/><path stroke="#B0AFB3" stroke-linecap="round" d="M406 21.5L426.5 1"/><path stroke="#B0AFB3" stroke-linecap="round" d="M413.5 21.5L434 1"/><path stroke="#B0AFB3" stroke-linecap="round" d="M421 21.5L441.5 1"/><path stroke="#B0AFB3" stroke-linecap="round" d="M428.5 21.5L449 1"/><path stroke="#B0AFB3" stroke-linecap="round" d="M436 21.5L456.5 1"/><path stroke="#B0AFB3" stroke-linecap="round" d="M443.5 21.5L464 1"/><path stroke="#B0AFB3" stroke-linecap="round" d="M451 21.5L471.5 1"/><path stroke="#B0AFB3" stroke-linecap="round" d="M458.5 21.5L479 1"/><path stroke="#B0AFB3" stroke-linecap="round" d="M466 21.5L486.5 1"/><path stroke="#B0AFB3" stroke-linecap="round" d="M473.5 21.5L494 1"/><path stroke="#B0AFB3" stroke-linecap="round" d="M481 21.5L501.5 1"/><path stroke="#B0AFB3" stroke-linecap="round" d="M488.5 21.5L509 1"/><path stroke="#B0AFB3" stroke-linecap="round" d="M496 21.5L516.5 1"/><path stroke="#B0AFB3" stroke-linecap="round" d="M503.5 21.5L524 1"/><path stroke="#B0AFB3" stroke-linecap="round" d="M511 21.5L531.5 1"/><path stroke="#B0AFB3" stroke-linecap="round" d="M518.5 21.5L539 1"/><path stroke="#B0AFB3" stroke-linecap="round" d="M526 21.5L546.5 1"/><path stroke="#B0AFB3" stroke-linecap="round" d="M533.5 21.5L554 1"/><path stroke="#B0AFB3" stroke-linecap="round" d="M541 21.5L561.5 1"/><path stroke="#B0AFB3" stroke-linecap="round" d="M548.5 21.5L569 1"/><path stroke="#B0AFB3" stroke-linecap="round" d="M556 21.5L576.5 1"/><path stroke="#B0AFB3" stroke-linecap="round" d="M563.5 21.5L584 1"/><path stroke="#B0AFB3" stroke-linecap="round" d="M571 21.5L591.5 1"/><path stroke="#B0AFB3" stroke-linecap="round" d="M578.5 21.5L599 1"/><path stroke="#B0AFB3" stroke-linecap="round" d="M586 21.5L606.5 1"/><path stroke="#B0AFB3" stroke-linecap="round" d="M593.5 21.5L614 1"/><path stroke="#B0AFB3" stroke-linecap="round" d="M601 21.5L621.5 1"/><path stroke="#B0AFB3" stroke-linecap="round" d="M608.5 21.5L629 1"/><path stroke="#B0AFB3" stroke-linecap="round" d="M616 21.5L636.5 1"/><path stroke="#B0AFB3" stroke-linecap="round" d="M623.5 21.5L644 1"/><path stroke="#B0AFB3" stroke-linecap="round" d="M631 21.5L651.5 1"/><path stroke="#B0AFB3" stroke-linecap="round" d="M638.5 21.5L659 1"/><path stroke="#B0AFB3" stroke-linecap="round" d="M646 21.5L666.5 1"/><path stroke="#B0AFB3" stroke-linecap="round" d="M653.5 21.5L674 1"/><path stroke="#B0AFB3" stroke-linecap="round" d="M661 21.5L681.5 1"/><path stroke="#B0AFB3" stroke-linecap="round" d="M668.5 21.5L689 1"/><path stroke="#B0AFB3" stroke-linecap="round" d="M676 21.5L696.5 1"/><path stroke="#B0AFB3" stroke-linecap="round" d="M683.5 21.5L704 1"/><path stroke="#B0AFB3" stroke-linecap="round" d="M691 21.5L711.5 1"/><path stroke="#B0AFB3" stroke-linecap="round" d="M698.5 21.5L719 1"/><path stroke="#B0AFB3" stroke-linecap="round" d="M706 21.5L726.5 1"/><path stroke="#B0AFB3" stroke-linecap="round" d="M713.5 21.5L734 1"/></svg>