<svg xmlns="http://www.w3.org/2000/svg" width="157" height="160" fill="none" viewBox="0 0 157 160"><path stroke="#272528" stroke-width="1.5" d="M113.974 122.735L103.886 139.046C101.169 143.439 95.5525 145.04 90.9273 142.739L86.8852 140.728C83.9539 139.27 80.4943 139.338 77.6235 140.912L47.9746 157.168C44.7869 158.916 40.9019 158.796 37.828 156.855L5.66093 136.543C2.75949 134.711 1.00005 131.519 1.00005 128.088V71.7699C1.00005 68.1992 2.90396 64.8994 5.9953 63.1123L110.238 2.85159C113.296 1.08393 117.059 1.06043 120.139 2.78976L150.67 19.934C153.823 21.7042 155.774 25.038 155.774 28.6534V89.3289C155.774 92.7379 154.037 95.912 151.167 97.7503L117.087 119.573C115.826 120.381 114.762 121.461 113.974 122.735Z"/><path stroke="#272528" stroke-width="1.5" d="M149.141 26.4L108.538 3.59998"/><path stroke="#272528" stroke-width="1.5" d="M106.73 51.9997L64.9206 28.7997"/><path stroke="#272528" stroke-width="1.5" d="M128.44 38.7996L87.8366 15.9996"/><path stroke="#272528" stroke-width="1.5" d="M85.8235 63.9997L44.0144 41.5997"/><path stroke="#272528" stroke-width="1.5" d="M57.682 80.7993L15.873 57.5993"/><path stroke="#272528" stroke-width="1.5" d="M142.104 30.799L101.501 7.99902"/><path stroke="#272528" stroke-width="1.5" d="M99.4907 55.9991L57.6817 33.5991"/><path stroke="#272528" stroke-width="1.5" d="M121.402 43.2003L80.7987 20.4003"/><path stroke="#272528" stroke-width="1.5" d="M78.588 68.8L36.779 45.6"/><path stroke="#272528" stroke-width="1.5" d="M50.4464 85.5996L8.63737 61.5996"/><path stroke="#272528" stroke-width="1.5" d="M43.2108 99.1987L1.40177 75.1987"/><path stroke="#272528" stroke-width="1.5" d="M43.2108 108.801L1.40177 84.8008"/><path stroke="#272528" stroke-width="1.5" d="M43.2108 119.2L1.40177 95.2003"/><path stroke="#272528" stroke-width="1.5" d="M43.2108 128.801L1.40177 104.801"/><path stroke="#272528" stroke-width="1.5" d="M43.2108 138.401L1.40177 114.401"/><path stroke="#272528" stroke-width="1.5" d="M43.2108 148.801L1.40177 124.801"/><path stroke="#272528" stroke-width="1.5" d="M134.868 34.8009L94.2649 12.0009"/><path stroke="#272528" stroke-width="1.5" d="M92.2551 60.001L50.4461 37.601"/><path stroke="#272528" stroke-width="1.5" d="M64.1168 76.799L22.3078 53.599"/><path stroke="#272528" stroke-width="1.5" d="M114.166 47.2006L73.5631 24.4006"/><path stroke="#272528" stroke-width="1.5" d="M71.3524 72.8003L29.5434 49.6003"/><path stroke="#272528" stroke-width="1.5" d="M44.2611 91.2006L1.64805 66.4006"/><path stroke="#272528" stroke-width="1.5" d="M154.367 23.5999L49.9584 85.8188C46.0237 88.1635 43.6133 92.4059 43.6133 96.9862V160"/></svg>